<svg id="Слой_1" data-name="Слой 1" xmlns="http://www.w3.org/2000/svg" viewBox="0 0 380.75 380.75"><defs><style>.cls-1{fill:#3b4065;}</style></defs><path class="cls-1" d="M112.84,339.84l59.72,59.72L83,429.42l29.86-89.58m-1.34-17.7a11.81,11.81,0,0,0-11.27,8.1L66.75,430.67a11.86,11.86,0,0,0,11.17,15.61,12,12,0,0,0,3.81-.63l100.43-33.48a11.84,11.84,0,0,0,4.63-19.6l-67-67a11.73,11.73,0,0,0-8.33-3.47Z" transform="translate(-66.12 -65.52)"/><polygon class="cls-1" points="32.38 308.06 18.24 322.21 58.55 362.51 72.69 348.37 32.38 308.06 32.38 308.06"/><path class="cls-1" d="M340.55,109.34l62.51,62.51L186.68,388.22l-62.5-62.5L340.55,109.34m0-21.21L103,325.72l83.72,83.72L424.27,171.85,340.55,88.13Z" transform="translate(-66.12 -65.52)"/><polygon class="cls-1" points="255.12 62.7 244.52 73.31 307.45 136.24 318.06 125.63 255.12 62.7 255.12 62.7"/><polygon class="cls-1" points="289.77 111.49 97.44 303.82 108.05 314.43 300.38 122.09 289.77 111.49 289.77 111.49"/><polygon class="cls-1" points="258.66 80.38 66.33 272.71 76.93 283.32 269.27 90.98 258.66 80.38 258.66 80.38"/><path class="cls-1" d="M368.13,81.77l62.5,62.5-17,17-62.5-62.5,17-17m0-16.25A12,12,0,0,0,359.64,69l-29.7,29.7,83.72,83.72,29.7-29.7a12,12,0,0,0,0-17L376.61,69a11.92,11.92,0,0,0-8.48-3.52Z" transform="translate(-66.12 -65.52)"/></svg>