<svg id="Слой_1" data-name="Слой 1" xmlns="http://www.w3.org/2000/svg" viewBox="0 0 174.32 174.57"><defs><style>.cls-1{fill:#ff6060;}</style></defs><path class="cls-1" d="M3.85,4.1h0a12.49,12.49,0,0,1,17.68,0L170.66,153.22a12.51,12.51,0,0,1,0,17.68h0a12.51,12.51,0,0,1-17.68,0L3.85,21.77A12.49,12.49,0,0,1,3.85,4.1Z" transform="translate(0 0.01)"/><path class="cls-1" d="M3.66,152.78,152.79,3.66a12.49,12.49,0,0,1,17.68,0h0a12.49,12.49,0,0,1,0,17.67L21.34,170.46a12.51,12.51,0,0,1-17.68,0h0A12.51,12.51,0,0,1,3.66,152.78Z" transform="translate(0 0.01)"/></svg>