<svg id="Слой_1" data-name="Слой 1" xmlns="http://www.w3.org/2000/svg" viewBox="0 0 302.42 314.32"><defs><style>.cls-1{fill:none;stroke:#3b4065;stroke-miterlimit:10;stroke-width:25px;}.cls-2{fill:#3b4065;}</style></defs><path class="cls-1" d="M199.05,383.29A138.52,138.52,0,0,1,256,118.5" transform="translate(-105 -98.39)"/><path class="cls-2" d="M186.61,382.29l-19.08,6A12.5,12.5,0,0,0,159.35,404h0A12.49,12.49,0,0,0,175,412.13l31-9.73L218,398.65A12.49,12.49,0,0,0,226.13,383l-3.74-11.92-9.74-31A12.49,12.49,0,0,0,197,331.87h0a12.49,12.49,0,0,0-8.18,15.67l6,19.08A12.49,12.49,0,0,1,186.61,382.29Z" transform="translate(-105 -98.39)"/><path class="cls-1" d="M313.37,127.81A138.52,138.52,0,0,1,256.42,392.6" transform="translate(-105 -98.39)"/><path class="cls-2" d="M325.81,128.81l19.08-6a12.51,12.51,0,0,0,8.19-15.67h0A12.5,12.5,0,0,0,337.41,99l-31,9.73-11.93,3.75a12.5,12.5,0,0,0-8.18,15.67L290,140l9.73,31a12.5,12.5,0,0,0,15.67,8.18h0a12.49,12.49,0,0,0,8.18-15.67l-6-19.08A12.5,12.5,0,0,1,325.81,128.81Z" transform="translate(-105 -98.39)"/></svg>