<svg id="Слой_1" data-name="Слой 1" xmlns="http://www.w3.org/2000/svg" viewBox="0 0 481.84 468.54"><defs><style>.cls-1{fill:none;stroke:#3b4065;stroke-miterlimit:10;stroke-width:40px;}</style></defs><path class="cls-1" d="M256.57,41.46H210.18a27.67,27.67,0,0,0-27.73,27.61V93.71a18.68,18.68,0,0,1-9.77,16.44q-4.27,2.32-8.39,4.89a9.25,9.25,0,0,1-9.51.18l-.05,0L119.14,94.72a27.79,27.79,0,0,0-37.87,10.11L38.72,178.25A27.55,27.55,0,0,0,48.87,216l35.59,20.47h0a4.37,4.37,0,0,1,2.23,4.19Q86.05,248,86,255.5v-.28q0,7.54.67,14.91a4.38,4.38,0,0,1-2.23,4.2l0,0L48.87,294.89a27.7,27.7,0,0,0-10.15,37.85l42.55,73.67a27.73,27.73,0,0,0,37.87,10.14L154.73,396l.05,0a9.23,9.23,0,0,1,9.51.19q4.11,2.56,8.39,4.9a18.77,18.77,0,0,1,9.77,16.5v24.72A27.73,27.73,0,0,0,210.18,470h92.17A27.67,27.67,0,0,0,330,442.29V417.57a18.8,18.8,0,0,1,9.73-16.5q4.26-2.34,8.36-4.9a9.16,9.16,0,0,1,9.47-.19l.05,0L393,416.55a27.56,27.56,0,0,0,37.72-10.14l42.39-73.67A27.75,27.75,0,0,0,463,294.89l-35.45-20.54,0,0a4.4,4.4,0,0,1-2.23-4.2q.66-7.36.67-14.91v.28q0-7.51-.67-14.86a4.38,4.38,0,0,1,2.23-4.19h0L463,216a27.61,27.61,0,0,0,10.11-37.72l-42.39-73.42A27.61,27.61,0,0,0,393,94.72l-35.45,20.47-.05,0a9.18,9.18,0,0,1-9.47-.18q-4.1-2.57-8.36-4.89A18.7,18.7,0,0,1,330,93.71V69.07a27.62,27.62,0,0,0-27.62-27.61H256.14" transform="translate(-15 -21.46)"/><circle class="cls-1" cx="241" cy="234.54" r="71"/></svg>