<svg id="Слой_1" data-name="Слой 1" xmlns="http://www.w3.org/2000/svg" viewBox="0 0 418 416.5"><defs><style>.cls-1{fill:none;}.cls-1,.cls-2{stroke:#000;stroke-miterlimit:10;stroke-width:25px;}</style></defs><ellipse class="cls-1" cx="209.25" cy="208.25" rx="101.53" ry="98.75"/><rect class="cls-2" x="203.5" y="12.5" width="10" height="40" rx="5"/><rect class="cls-2" x="204.5" y="364" width="10" height="40" rx="5"/><rect class="cls-2" x="427.5" y="236.5" width="10" height="40" rx="5" transform="translate(129 641.5) rotate(-90)"/><rect class="cls-2" x="74.5" y="235.5" width="10" height="40" rx="5" transform="translate(-223 287.5) rotate(-90)"/><rect class="cls-2" x="127.07" y="111.38" width="10" height="40" rx="5" transform="translate(-101.22 84.37) rotate(-45)"/><rect class="cls-2" x="376.07" y="360.38" width="10" height="40" rx="5" transform="translate(-204.36 333.37) rotate(-45)"/><rect class="cls-2" x="376.07" y="111.38" width="10" height="40" rx="5" transform="translate(157.51 -278.48) rotate(45)"/><rect class="cls-2" x="127.07" y="360.38" width="10" height="40" rx="5" transform="translate(260.65 -29.48) rotate(45)"/></svg>