<svg id="Слой_1" data-name="Слой 1" xmlns="http://www.w3.org/2000/svg" viewBox="0 0 432.03 510"><defs><style>.cls-1{fill:#3b4065;}.cls-2{fill:none;stroke:#3b4065;stroke-miterlimit:10;stroke-width:40px;}</style></defs><path class="cls-1" d="M389.34,95.4V472H120.17V95.4H389.34m40-40H80.17V482a30,30,0,0,0,30,30H399.34a30,30,0,0,0,30-30V55.4Z" transform="translate(-40 -2)"/><path class="cls-1" d="M452,55H60a20,20,0,0,0,0,40H452a20,20,0,0,0,0-40Z" transform="translate(-40 -2)"/><path class="cls-1" d="M256.26,149.59a20.46,20.46,0,0,0-20.47,20.47V395.29a20.48,20.48,0,1,0,41,0V170.06a20.47,20.47,0,0,0-20.48-20.47Z" transform="translate(-40 -2)"/><path class="cls-1" d="M317.69,149.59a20.47,20.47,0,0,0-20.48,20.47V395.29a20.48,20.48,0,1,0,41,0V170.06a20.47,20.47,0,0,0-20.47-20.47Z" transform="translate(-40 -2)"/><path class="cls-1" d="M194.83,149.59a20.47,20.47,0,0,0-20.47,20.47V395.29a20.48,20.48,0,1,0,40.95,0V170.06a20.47,20.47,0,0,0-20.48-20.47Z" transform="translate(-40 -2)"/><path class="cls-2" d="M175.36,80.76V68.42A46.42,46.42,0,0,1,221.78,22H290.7a46.41,46.41,0,0,1,46.41,46.42V80.76" transform="translate(-40 -2)"/></svg>